<svg width="267" height="164" viewBox="0 0 267 164" fill="none" xmlns="http://www.w3.org/2000/svg">
<g clip-path="url(#clip0)">
<path d="M248.721 137.801C246.702 132.622 245.195 127.124 243.55 121.318C242.439 117.403 240.651 113.026 236.778 111.795C233.005 110.596 228.945 113.081 226.629 116.287C224.308 119.492 223.142 123.374 221.156 126.799C217.558 133.001 211.194 135.602 205.93 130.148C198.41 122.357 195.027 111.74 190.258 102.239C186.798 95.3442 183.899 87.2673 179.536 80.9114C172.886 71.2181 163.766 62.9543 151.642 62.9543C143.957 64.12 137.185 70.9212 132.598 79.4269C128.016 87.9326 125.342 98.0438 123.065 108.133C118.923 126.48 115.886 145.251 112.855 164C112.855 164 265.839 162.219 265.845 162.219C265.234 162.224 261.488 157.215 260.767 156.523C254.893 150.837 251.366 144.591 248.721 137.801Z" fill="#DCE6EF"/>
<path d="M219.682 146.543C219.379 152.487 212.91 162.879 206.964 162.582C201.017 162.285 197.843 151.404 198.146 145.46C198.448 139.517 204.78 109.771 210.726 110.068C216.673 110.365 219.984 140.6 219.682 146.543Z" fill="#6AA5FE"/>
<path d="M210.44 113.934L207.442 162.103" stroke="#1A55B5" stroke-width="0.8675" stroke-miterlimit="10" stroke-linecap="round" stroke-linejoin="round"/>
<path d="M206.072 145.306C204.719 148.281 203.685 151.398 203.063 154.653C202.75 156.303 202.546 158.089 203.294 159.59C204.109 161.234 205.918 162.191 207.728 162.488C212.151 163.214 216.568 160.509 219.159 156.852C221.75 153.202 222.872 148.737 223.901 144.377C224.709 140.946 225.507 137.466 227.036 134.266C227.691 132.897 231.53 127.602 229.715 126.233C227.234 124.281 220.045 126.403 215.44 131.429C211.65 135.563 208.388 140.22 206.072 145.306Z" fill="#FFC957"/>
<path d="M207.728 162.483C207.728 162.483 213.064 141.716 225.953 129.807" stroke="#6AA5FE" stroke-width="0.8675" stroke-miterlimit="10" stroke-linecap="round" stroke-linejoin="round"/>
<path d="M237.334 140.407C236.877 141.226 236.019 141.782 235.243 142.222C234.286 142.76 233.263 143.233 232.279 143.695C231.013 144.283 229.704 144.894 228.494 145.652C227.614 146.208 226.827 146.829 226.173 147.5C227.212 145.141 228.422 143.085 229.853 141.243C231.734 138.824 233.665 137.598 235.596 137.598C235.64 137.598 235.684 137.598 235.728 137.598C236.322 137.614 236.789 137.763 237.108 138.038C237.763 138.598 237.735 139.681 237.334 140.407Z" fill="#1A55B5"/>
<path d="M239.49 153.834C238.726 154.378 237.713 154.516 236.822 154.582C235.728 154.658 234.6 154.653 233.511 154.642C232.114 154.631 230.667 154.62 229.253 154.79C228.219 154.911 227.245 155.142 226.365 155.467C228.313 153.779 230.293 152.437 232.372 151.387C235.112 150.002 237.378 149.721 239.122 150.546C239.16 150.562 239.204 150.584 239.243 150.606C239.776 150.876 240.134 151.211 240.304 151.596C240.651 152.382 240.161 153.355 239.49 153.834Z" fill="#1A55B5"/>
<path d="M234.402 160.443C233.769 160.355 233.197 159.948 232.724 159.563C232.141 159.09 231.585 158.557 231.046 158.045C230.353 157.386 229.644 156.704 228.857 156.127C228.285 155.703 227.691 155.362 227.102 155.109C228.863 155.181 230.474 155.445 232.004 155.896C234.011 156.489 235.277 157.413 235.755 158.639C235.766 158.667 235.777 158.694 235.788 158.727C235.926 159.112 235.948 159.442 235.854 159.717C235.656 160.267 234.963 160.52 234.402 160.443Z" fill="#1A55B5"/>
<path d="M219.929 162.598C219.929 162.598 219.99 149.892 235.513 139.104" stroke="#2A294F" stroke-width="0.7798" stroke-miterlimit="10" stroke-linecap="round" stroke-linejoin="round"/>
<path d="M219.929 162.598C219.929 162.598 224.698 152.388 237.62 152.388" stroke="#2A294F" stroke-width="0.7798" stroke-miterlimit="10" stroke-linecap="round" stroke-linejoin="round"/>
<path d="M226.965 155.23C226.965 155.23 229.468 155.049 234.694 158.986" stroke="#2A294F" stroke-width="0.7798" stroke-miterlimit="10" stroke-linecap="round" stroke-linejoin="round"/>
<path d="M86.5282 162.708C82.9416 149.149 79.3331 135.585 75.1139 122.456C72.7376 115.05 70.1082 107.677 66.4611 101.755C62.814 95.8335 57.9843 91.4624 53.1325 91.4899C45.6624 92.9359 40.8382 100.309 37.6752 108.479C35.6014 113.835 34.5947 120.322 33.1315 125.986C31.1127 133.782 30.051 142.266 26.1729 149.083C23.4555 153.861 19.2803 152.641 16.4639 148.352C14.9127 145.982 13.8125 143.167 12.0742 141.007C10.336 138.846 7.59105 137.438 5.38521 138.802C3.11336 140.204 2.43676 143.745 2.12871 146.857C1.67764 151.47 1.27608 155.83 0.533468 160.014C0.373943 160.927 0.192415 161.823 -0.00561523 162.719H86.5282V162.708Z" fill="#DCE6EF"/>
<path d="M54.4418 143.992C52.1975 141.408 49.359 139.176 48.4679 135.915C47.8133 133.535 48.3304 131.011 48.5834 128.553C48.8364 126.096 48.7484 123.379 47.1587 121.488C45.8495 119.927 43.7757 119.25 41.7844 118.821C39.7931 118.393 37.7137 118.123 35.948 117.111C33.0765 115.468 33.6486 112.669 32.1084 110.217C30.3811 107.462 26.3545 103.949 22.911 105.78C19.2584 107.715 19.836 113.598 22.2674 116.193C23.8791 117.914 25.9419 119.569 26.1785 121.911C26.536 125.441 22.4874 128.625 23.5986 131.995C24.4237 134.486 27.5592 135.338 29.1104 137.455C30.6451 139.55 30.3371 142.48 29.4295 144.91C28.5273 147.341 27.1026 149.589 26.5415 152.124C25.3918 157.303 29.457 160.888 34.0942 162.043C38.3518 163.104 47.5382 162.604 47.5382 162.604C50.8167 161.46 54.4528 158.579 56.2516 155.434C57.6158 153.059 57.8028 150.046 56.7467 147.516C56.2076 146.213 55.3769 145.075 54.4418 143.992Z" fill="#FFC957"/>
<path d="M26.9871 111.366C26.9871 111.366 42.67 135.58 44.3752 162.466" stroke="#6AA5FE" stroke-miterlimit="10" stroke-linecap="round" stroke-linejoin="round"/>
<path d="M13.0203 144.025C13.2624 143.816 13.6144 143.706 14.0655 143.695C14.0985 143.695 14.1315 143.695 14.1645 143.695C15.6222 143.695 17.0855 144.625 18.5047 146.455C19.5883 147.846 20.5015 149.402 21.2881 151.184C20.793 150.678 20.1989 150.205 19.5333 149.787C18.6202 149.215 17.63 148.754 16.6729 148.308C15.9248 147.962 15.1547 147.605 14.4285 147.192C13.84 146.862 13.1909 146.439 12.8498 145.823C12.5418 145.273 12.5253 144.454 13.0203 144.025Z" fill="#6AA5FE"/>
<path d="M10.6054 154.279C10.7374 153.988 11.007 153.735 11.4085 153.531C11.436 153.515 11.469 153.504 11.4965 153.488C12.8167 152.861 14.533 153.075 16.6013 154.125C18.1746 154.923 19.6708 155.934 21.1395 157.21C20.4739 156.962 19.7368 156.792 18.9557 156.698C17.883 156.572 16.7883 156.577 15.7322 156.583C14.9071 156.588 14.0599 156.594 13.2293 156.534C12.5582 156.484 11.7881 156.38 11.216 155.973C10.7099 155.61 10.3414 154.879 10.6054 154.279Z" fill="#6AA5FE"/>
<path d="M13.9664 160.415C13.8949 160.212 13.9114 159.959 14.0159 159.668C14.0214 159.646 14.0324 159.624 14.0379 159.602C14.401 158.672 15.3526 157.974 16.8764 157.523C18.0316 157.182 19.2527 156.984 20.5839 156.929C20.1384 157.122 19.6873 157.38 19.2582 157.699C18.6642 158.139 18.1251 158.656 17.6025 159.151C17.1954 159.541 16.7774 159.942 16.3373 160.3C15.9797 160.591 15.5507 160.899 15.0721 160.965C14.643 161.026 14.115 160.833 13.9664 160.415Z" fill="#6AA5FE"/>
<path d="M26.0077 162.598C26.0077 162.598 25.9637 152.987 14.2249 144.833" stroke="#2A294F" stroke-width="0.7798" stroke-miterlimit="10" stroke-linecap="round" stroke-linejoin="round"/>
<path d="M26.0077 162.598C26.0077 162.598 22.4046 154.879 12.6296 154.879" stroke="#2A294F" stroke-width="0.7798" stroke-miterlimit="10" stroke-linecap="round" stroke-linejoin="round"/>
<path d="M20.6883 157.028C20.6883 157.028 18.796 156.891 14.8464 159.871" stroke="#2A294F" stroke-width="0.7798" stroke-miterlimit="10" stroke-linecap="round" stroke-linejoin="round"/>
<path d="M151.95 162.598H48.4459C45.5744 162.598 43.2476 160.272 43.2476 157.402V17.1216C43.2476 14.2515 45.5744 11.9258 48.4459 11.9258H151.95C154.821 11.9258 157.148 14.2515 157.148 17.1216V157.408C157.148 160.272 154.821 162.598 151.95 162.598Z" fill="#6AA5FE"/>
<path d="M43.2529 48.6316V157.408C43.2529 160.278 45.5798 162.604 48.4512 162.604H151.955C154.827 162.604 157.153 160.278 157.153 157.408V135.937L43.2529 48.6316Z" fill="#527EE9"/>
<path d="M148.407 155.648H51.9939C50.8222 155.648 49.8706 154.697 49.8706 153.526V20.9978C49.8706 19.8267 50.8222 18.8755 51.9939 18.8755H148.407C149.579 18.8755 150.531 19.8267 150.531 20.9978V153.526C150.531 154.697 149.579 155.648 148.407 155.648Z" fill="#F3F4F6"/>
<path d="M108.834 9.07764C108.84 8.93468 108.856 8.79723 108.856 8.64878C108.856 3.87085 104.978 -0.00537109 100.198 -0.00537109C95.4177 -0.00537109 91.5396 3.87085 91.5396 8.64878C91.5396 8.79173 91.5561 8.93468 91.5616 9.07764H78.8381V22.2678H121.558V9.07764H108.834Z" fill="#1A55B5"/>
<path d="M78.8435 9.07764V22.2678H121.558L78.8435 9.07764Z" fill="#2C6BC6"/>
<path d="M102.069 13.1364C104.547 12.1035 105.719 9.25764 104.686 6.78001C103.652 4.30238 100.805 3.13121 98.3262 4.16414C95.8474 5.19707 94.6756 8.04294 95.7091 10.5206C96.7425 12.9982 99.5898 14.1694 102.069 13.1364Z" fill="#527EE9"/>
<path d="M96.7654 5.21802C94.8676 7.11489 94.8676 10.1939 96.7654 12.0908C98.6632 13.9876 101.744 13.9876 103.641 12.0908L96.7654 5.21802Z" fill="#6AA5FE"/>
<path d="M121.563 22.2678H78.8435V23.175H121.563V22.2678Z" fill="#CDE1F9"/>
<path d="M161.78 54.421C161.444 54.6794 158.391 56.4828 158.391 56.4828L156.224 53.7118L156.867 50.5503L161.532 50.8417L162.346 53.2004C162.539 53.7557 162.192 54.1021 161.78 54.421Z" fill="#FE9280"/>
<path d="M161.527 50.8363L162.231 52.9036L160.08 53.7668C159.673 53.9428 159.211 53.9758 158.782 53.8603C157.836 53.6074 157.214 52.6892 157.335 51.716L157.473 50.5779L161.527 50.8363Z" fill="#E86767"/>
<path d="M160.47 53.602L162.335 53.8714L163.358 52.123C163.556 51.8096 163.463 51.3917 163.149 51.1883C162.836 50.9904 162.418 51.0838 162.214 51.3972L160.47 53.602Z" fill="#FF746F"/>
<path d="M159.062 61.0796L155.217 62.0528L153.842 73.1811L158.342 73.3625L159.062 61.0796Z" fill="white"/>
<path d="M209.615 70.1129L202.893 69.2662L204.433 57.0547L211.155 57.9014C214.527 58.3248 216.92 61.4038 216.497 64.7796C216.068 68.15 212.987 70.5363 209.615 70.1129Z" fill="#FE9280"/>
<path opacity="0.2" d="M209.967 67.331L203.245 66.4843L202.893 69.2664L209.615 70.1131C212.987 70.5365 216.068 68.1503 216.497 64.7744C216.557 64.296 216.557 63.8232 216.513 63.3613C215.539 65.9895 212.861 67.6994 209.967 67.331Z" fill="#777470"/>
<path d="M202.074 69.1673L130.766 59.9743L132.301 47.7573L203.614 56.9503L202.074 69.1673Z" fill="#FFC957"/>
<path d="M118.059 52.1669L130.766 59.9743L132.301 47.7573L118.059 52.1669Z" fill="#FFF4DD"/>
<path opacity="0.2" d="M118.059 52.1667L130.766 59.9742L131.14 56.9832L118.059 52.1667Z" fill="#777470"/>
<path d="M122.3 50.8584L118.059 52.167L121.844 54.4927L122.3 50.8584Z" fill="#2A294F"/>
<path d="M209.521 57.695L203.621 56.9526L202.082 69.1671L207.982 69.9094L209.521 57.695Z" fill="#D3EAF5"/>
<path d="M209.59 57.1752L207.571 56.9211L205.901 70.183L207.92 70.4371L209.59 57.1752Z" fill="#D3EAF5"/>
<path opacity="0.2" d="M205.957 69.6565L130.766 59.9742L131.14 56.9832L206.337 66.6655L205.957 69.6565Z" fill="#777470"/>
<path opacity="0.05" d="M207.197 60.6733L132 50.9855L132.374 48L207.571 57.6823L207.197 60.6733Z" fill="#777470"/>
<path opacity="0.15" d="M208.428 66.381L206.408 66.127L205.898 70.1802L207.917 70.4343L208.428 66.381Z" fill="#777470"/>
<path d="M178.678 93.8981L179.691 91.2975L183.085 91.0336C183.712 90.9676 184.262 91.347 184.322 91.8803C184.377 92.4136 183.921 92.9029 183.294 92.9689L178.678 93.8981Z" fill="#E86767"/>
<path d="M176.929 91.3085L178.678 93.8981L182.006 93.2274L178.299 87.6797L177.578 88.1525C176.528 88.8453 176.236 90.2583 176.929 91.3085Z" fill="#FF746F"/>
<path d="M180.208 49.5937C176.748 44.5574 168.04 45.899 168.265 53.9703C168.265 53.9923 168.265 54.0198 168.271 54.0418C168.249 55.0644 168.282 56.1091 168.018 57.0713C167.88 57.5606 167.649 58.0115 167.292 58.3359C166.94 58.6658 166.483 58.8637 166.005 58.9627C165.52 59.0726 164.992 59.0946 164.453 59.2046C163.909 59.3145 163.381 59.5125 162.902 59.7984C161.939 60.3592 161.153 61.2774 160.795 62.3605C160.108 64.5158 160.658 67.012 162.281 68.634C162.688 69.0298 163.161 69.3707 163.683 69.6126C164.2 69.8656 164.789 69.959 165.267 70.058C166.274 70.2779 167.292 70.5693 168.326 70.7728L168.353 70.6848C167.396 70.2449 166.456 69.7831 165.443 69.4312C164.915 69.2443 164.464 69.1398 164.052 68.8869C163.645 68.645 163.265 68.3481 162.946 67.9907C162.308 67.2814 161.84 66.4072 161.576 65.4725C161.312 64.5378 161.257 63.5317 161.521 62.6025C161.78 61.6788 162.402 60.876 163.227 60.3427C163.634 60.0733 164.096 59.8809 164.574 59.7599C165.058 59.6389 165.586 59.5895 166.12 59.4465C166.654 59.309 167.182 59.0396 167.572 58.6218C167.968 58.2094 168.194 57.6761 168.304 57.1483C168.381 56.7744 168.419 56.395 168.43 56.0211C168.524 57.5276 168.392 59.0561 166.846 59.6334C165.955 59.9688 165.086 59.9688 164.255 60.5186C163.441 61.063 162.798 61.8657 162.484 62.7894C161.51 65.643 164.041 69.3377 167.017 69.6566C168.249 69.7886 169.481 70.0855 170.697 70.3054C171.038 70.3659 175.824 71.3446 175.862 71.2346L181.401 54.8445L180.208 49.5937Z" fill="#1A55B5"/>
<path d="M179.944 90.1374L191.176 82.3024L189.609 77.9644L178.299 87.6742L179.944 90.1374Z" fill="white"/>
<path d="M188.173 81.2302C188.706 82.3519 190.049 82.8357 191.171 82.3024C192.293 81.7691 192.777 80.4275 192.243 79.3059C191.71 78.1842 190.368 77.7004 189.246 78.2337C188.123 78.7615 187.645 80.1031 188.173 81.2302Z" fill="white"/>
<path d="M188.734 82.0385L191.935 78.8716L182.688 68.4745C181.638 67.056 179.575 66.902 178.321 68.1391C177.067 69.3762 177.204 72.8235 178.607 73.8902L188.734 82.0385Z" fill="white"/>
<path d="M173.091 67.6713L176.878 67.9919L177.55 60.0647L173.763 59.744L173.091 67.6713Z" fill="#FF746F"/>
<path d="M155.85 71.4986C154.607 71.5811 153.672 72.6532 153.754 73.8958C153.837 75.1384 154.909 76.0731 156.152 75.9906C157.396 75.9082 158.331 74.836 158.248 73.5934C158.166 72.3508 157.093 71.4107 155.85 71.4986Z" fill="white"/>
<path d="M154.431 71.8284L156.714 75.8806L170.658 71.8284C172.369 71.394 173.293 68.1611 172.622 66.5336C171.951 64.9062 169.987 64.2464 168.469 65.1481L154.431 71.8284Z" fill="white"/>
<path d="M175.774 87.4597L182.832 70.1514C183.189 68.7328 182.232 67.3253 180.785 67.1274L170.653 64.8291C169.206 64.6312 167.908 65.7363 167.875 67.1989L164.409 86.0741L175.774 87.4597Z" fill="white"/>
<path d="M174.635 50.5173C173.464 51.9963 171.362 52.6176 170.867 53.9757L170.763 54.6025C170.763 54.63 170.763 54.6575 170.763 54.6905L170.752 54.6685L170.433 56.5653C170.026 58.968 171.648 61.2443 174.052 61.6512C176.456 62.058 178.733 60.4361 179.14 58.0334L179.504 55.8946C179.245 53.7283 175.273 53.5578 174.635 50.5173Z" fill="#FF746F"/>
<path d="M178.673 57.0274C178.579 57.5827 178.953 58.1161 179.514 58.2095C180.07 58.303 180.604 57.9291 180.697 57.3683C180.791 56.813 180.417 56.2797 179.855 56.1862C179.3 56.0927 178.772 56.4666 178.673 57.0274Z" fill="#FF746F"/>
<path d="M169.399 86.6845L174.476 99.2149L169.624 157.754H165.895L161.505 98.852L164.404 86.0742L169.399 86.6845Z" fill="#1A55B5"/>
<path d="M169.398 86.6846V99.2149L192.254 157.754H195.054L182.826 97.0047L175.774 87.4598L169.398 86.6846Z" fill="#527EE9"/>
<path d="M167.985 160.811H166.423V157.754H168.447L167.985 160.811Z" fill="#FF746F"/>
<path d="M166.373 160.118L167.286 160.52L168.128 160.118L168.892 162.598H161.846L164.492 161.361L166.373 160.118Z" fill="#2A294F"/>
<path d="M194.097 160.811H195.654L194.736 157.754H192.711L194.097 160.811Z" fill="#FF746F"/>
<path d="M195.709 160.118L194.796 160.52L193.949 160.118L193.19 162.598H200.236L197.59 161.361L195.709 160.118Z" fill="#2A294F"/>
<path d="M171.269 74.2696C171.269 76.0346 169.838 77.4641 168.073 77.4641C166.307 77.4641 164.877 76.0346 164.877 74.2696C164.877 72.5047 166.307 71.0752 168.073 71.0752C169.838 71.0752 171.269 72.5047 171.269 74.2696Z" fill="white"/>
<path d="M170.944 64.9172L171.346 71.779L177.281 65.7365L170.944 64.9172Z" fill="#FF746F"/>
<path d="M183.866 51.0509C183.36 50.4021 182.738 49.8798 182.05 49.5224C180.934 48.9341 179.674 49.0001 178.651 48.1204L179.449 56.1752C180.917 55.7573 180.829 58.9188 179.135 58.0446C179.135 58.0446 175.774 59.4851 174.498 62.6301C173.623 64.7414 173.475 67.2101 173.706 68.6176C174.118 71.1413 176.258 72.4499 178.695 71.7076C180.147 71.2622 181.33 70.1681 182.172 68.898C185.114 64.4555 187.073 57.1539 184.559 52.1395C184.355 51.7437 184.124 51.3808 183.866 51.0509Z" fill="#1A55B5"/>
<path d="M156.824 50.0776L156.741 50.589C156.571 51.6556 157.297 52.6618 158.364 52.8377L159.2 52.9697C160.267 53.1401 161.274 52.4144 161.45 51.3477L161.532 50.8364L156.824 50.0776Z" fill="#FF746F"/>
<path d="M172.405 57.4561C172.617 57.6838 174.212 58.447 174.444 58.3896C174.695 58.3258 174.862 58.0632 174.869 57.8032C174.876 57.5433 174.748 57.2984 174.585 57.1009C174.202 56.657 173.579 56.433 173 56.5339C172.779 56.5715 172.561 56.6612 172.422 56.8402C172.279 57.0125 172.25 57.2894 172.405 57.4561Z" fill="white"/>
<path d="M0.478516 162.598H266.785" stroke="#2A294F" stroke-width="0.7798" stroke-miterlimit="10" stroke-linecap="round" stroke-linejoin="round"/>
<circle cx="88.5" cy="84.5" r="3.5" fill="#FF746F"/>
<circle cx="101.5" cy="84.5" r="3.5" fill="#FF746F"/>
<circle cx="114.5" cy="84.5" r="3.5" fill="#FF746F"/>
</g>
<defs>
<clipPath id="clip0">
<rect width="267" height="164" fill="white"/>
</clipPath>
</defs>
</svg>
